<?xml version="1.0" encoding="UTF-8" standalone="no"?>
<!-- Created with Inkscape (http://www.inkscape.org/) -->

<svg
   width="210mm"
   height="297mm"
   viewBox="0 0 210 297"
   version="1.1"
   id="svg1"
   xml:space="preserve"
   inkscape:version="1.4 (86a8ad7, 2024-10-11)"
   sodipodi:docname="home icon_raw.svg"
   xmlns:inkscape="http://www.inkscape.org/namespaces/inkscape"
   xmlns:sodipodi="http://sodipodi.sourceforge.net/DTD/sodipodi-0.dtd"
   xmlns="http://www.w3.org/2000/svg"
   xmlns:svg="http://www.w3.org/2000/svg"><sodipodi:namedview
     id="namedview1"
     pagecolor="#ffffff"
     bordercolor="#000000"
     borderopacity="0.25"
     inkscape:showpageshadow="2"
     inkscape:pageopacity="0.0"
     inkscape:pagecheckerboard="0"
     inkscape:deskcolor="#d1d1d1"
     inkscape:document-units="mm"
     showgrid="true"
     showguides="false"
     inkscape:zoom="1.9132427"
     inkscape:cx="195.47964"
     inkscape:cy="446.62394"
     inkscape:window-width="1920"
     inkscape:window-height="1001"
     inkscape:window-x="-9"
     inkscape:window-y="-9"
     inkscape:window-maximized="1"
     inkscape:current-layer="layer3"><inkscape:grid
       id="grid1"
       units="mm"
       originx="0"
       originy="0"
       spacingx="0.99999998"
       spacingy="1"
       empcolor="#0099e5"
       empopacity="0.30196078"
       color="#0099e5"
       opacity="0.14901961"
       empspacing="5"
       enabled="true"
       visible="true" /></sodipodi:namedview><defs
     id="defs1"><inkscape:path-effect
       effect="fillet_chamfer"
       id="path-effect4"
       is_visible="true"
       lpeversion="1"
       nodesatellites_param="F,0,0,1,0,2.8143902,0,1 @ F,0,0,1,0,3.0000003,0,1 @ F,0,0,1,0,1.9999967,0,1 @ F,0,0,1,0,4.0000005,0,1 @ F,0,0,1,0,4.0000038,0,1 @ F,0,0,1,0,2.0000011,0,1 @ F,0,0,1,0,2.9999998,0,1"
       radius="0"
       unit="px"
       method="auto"
       mode="F"
       chamfer_steps="1"
       flexible="false"
       use_knot_distance="true"
       apply_no_radius="true"
       apply_with_radius="true"
       only_selected="false"
       hide_knots="false" /></defs><g
     inkscape:label="Layer 1"
     inkscape:groupmode="layer"
     id="layer1"
     style="display:none"><path
       style="color:#000000;font-style:normal;font-variant:normal;font-weight:normal;font-stretch:normal;font-size:medium;line-height:normal;font-family:sans-serif;font-variant-ligatures:normal;font-variant-position:normal;font-variant-caps:normal;font-variant-numeric:normal;font-variant-alternates:normal;font-variant-east-asian:normal;font-feature-settings:normal;font-variation-settings:normal;text-indent:0;text-align:start;text-decoration-line:none;text-decoration-style:solid;text-decoration-color:#000000;letter-spacing:normal;word-spacing:normal;text-transform:none;writing-mode:lr-tb;direction:ltr;text-orientation:mixed;dominant-baseline:auto;baseline-shift:baseline;text-anchor:start;white-space:normal;shape-padding:0;shape-margin:0;inline-size:0;clip-rule:nonzero;display:inline;overflow:visible;visibility:visible;opacity:1;isolation:auto;mix-blend-mode:normal;color-interpolation:sRGB;color-interpolation-filters:linearRGB;solid-color:#000000;solid-opacity:1;vector-effect:none;fill:#000000;fill-opacity:1;fill-rule:nonzero;stroke:none;stroke-linecap:butt;stroke-linejoin:miter;stroke-miterlimit:4;stroke-dasharray:none;stroke-dashoffset:0;stroke-opacity:1;-inkscape-stroke:none;color-rendering:auto;image-rendering:auto;shape-rendering:auto;text-rendering:auto;enable-background:accumulate;stop-color:#000000;stop-opacity:1"
       d="M 72.821784,98.782175 55.321873,113.10029 A 1.0708903,1.0708903 70.355295 0 0 56.000001,115 h 3.000003 a 1.9999967,1.9999967 45 0 1 1.999997,2 v 15 a 4.0000005,4.0000005 45 0 0 4,4 h 19.999997 a 4.0000038,4.0000038 135 0 0 4.000004,-4 v -15 a 2.0000011,2.0000011 135 0 1 2.000001,-2 l 2.999999,0 a 1.0708902,1.0708902 109.64471 0 0 0.678128,-1.89971 L 77.17822,98.782175 a 3.4398097,3.4398097 6.3819578e-7 0 0 -4.356436,0 z"
       id="path4"
       sodipodi:nodetypes="cccccccc"
       transform="translate(-2.6546404,-4.5799924)"
       inkscape:original-d="M 75.000002,96.999997 53.000001,115 h 8 v 21 h 28.000001 v -21 h 8 z"
       inkscape:path-effect="#path-effect4" /><path
       style="fill:#000000;stroke-width:0.264583"
       d="m 70.000002,116.70676 c 0,0 -3.677256,-1.87385 -6.389996,-2.43066 -2.71274,-0.55681 -6.783601,-0.15022 -9.52867,0.16266 -2.745069,0.31288 -5,1 -5,1 0.02615,-9.3e-4 9.402416,-0.98196 12.633999,-0.56933 3.691336,0.47133 8.284667,1.83733 8.284667,1.83733 z"
       id="path6"
       sodipodi:nodetypes="czzcsc" /><path
       style="fill:#000000;stroke-width:0.264583"
       d="m 69.917258,121.18519 c -4.743748,-0.48765 -6.630366,0.0123 -9.976684,1.21069 -2.610236,0.90552 -9.859238,6.30836 -9.859238,6.30836 0.02531,-0.007 2.641109,-1.55912 5.417521,-3.2635 6.456738,-3.96367 14.418401,-4.25555 14.418401,-4.25555 z"
       id="path6-3"
       sodipodi:nodetypes="czcsc" /><path
       style="fill:#000000;stroke-width:0.264583"
       d="m 74.918668,120.89195 c 4.743748,-0.48765 6.630366,0.0123 9.976684,1.21069 2.610236,0.90552 9.859238,6.30836 9.859238,6.30836 -0.02531,-0.007 -2.641109,-1.55912 -5.417521,-3.2635 -6.456738,-3.96367 -14.418401,-4.25555 -14.418401,-4.25555 z"
       id="path6-3-3"
       sodipodi:nodetypes="czcsc" /><path
       style="fill:#000000;stroke-width:0.264583"
       d="m 75.000002,116.70676 c 0,0 3.677256,-1.87385 6.389994,-2.43066 2.71274,-0.55681 6.7836,-0.15022 9.52867,0.16266 2.74507,0.31288 5,1 5,1 -0.0262,-9.3e-4 -9.40242,-0.98196 -12.634,-0.56933 -3.691333,0.47133 -8.284664,1.83733 -8.284664,1.83733 z"
       id="path6-7"
       sodipodi:nodetypes="czzcsc" /><path
       style="fill:#000000;stroke-width:0.293423"
       d="m 68.081334,119.02551 c -5.917868,-1.27372 -11.117313,0.3032 -16.915666,1.72257 -3.5004,0.89563 -6.008963,1.64729 -6.008963,1.64729 0.02834,-0.006 9.348434,-3.25188 12.903484,-3.90654 7.357782,-1.35493 10.021145,0.53668 10.021145,0.53668 z"
       id="path6-1"
       sodipodi:nodetypes="czcsc" /><path
       style="fill:#000000;stroke-width:0.293423"
       d="m 76.994035,118.73227 c 5.917868,-1.27372 11.117313,0.3032 16.915663,1.72257 3.500398,0.89563 6.008968,1.64729 6.008968,1.64729 -0.0283,-0.006 -9.348436,-3.25188 -12.903486,-3.90654 -7.357782,-1.35493 -10.021145,0.53668 -10.021145,0.53668 z"
       id="path6-1-7"
       sodipodi:nodetypes="czcsc" /></g><g
     inkscape:groupmode="layer"
     id="layer3"
     inkscape:label="Layer 2"><path
       id="path4-3"
       style="color:#000000;font-style:normal;font-variant:normal;font-weight:normal;font-stretch:normal;font-size:medium;line-height:normal;font-family:sans-serif;font-variant-ligatures:normal;font-variant-position:normal;font-variant-caps:normal;font-variant-numeric:normal;font-variant-alternates:normal;font-variant-east-asian:normal;font-feature-settings:normal;font-variation-settings:normal;text-indent:0;text-align:start;text-decoration-line:none;text-decoration-style:solid;text-decoration-color:#000000;letter-spacing:normal;word-spacing:normal;text-transform:none;writing-mode:lr-tb;direction:ltr;text-orientation:mixed;dominant-baseline:auto;baseline-shift:baseline;text-anchor:start;white-space:normal;shape-padding:0;shape-margin:0;inline-size:0;clip-rule:nonzero;display:inline;overflow:visible;visibility:visible;isolation:auto;mix-blend-mode:normal;color-interpolation:sRGB;color-interpolation-filters:linearRGB;solid-color:#000000;solid-opacity:1;vector-effect:none;fill:#000000;fill-opacity:1;fill-rule:nonzero;stroke:none;stroke-linecap:butt;stroke-linejoin:miter;stroke-miterlimit:4;stroke-dasharray:none;stroke-dashoffset:0;stroke-opacity:1;-inkscape-stroke:none;color-rendering:auto;image-rendering:auto;shape-rendering:auto;text-rendering:auto;enable-background:accumulate;stop-color:#000000"
       d="m 72.060369,93.474336 a 3.4398097,3.4398097 0 0 0 -2.17816,0.777213 l -17.50023,14.318511 a 1.0708903,1.0708903 0 0 0 0.67851,1.89963 h 2.99982 a 1.9999967,1.9999967 0 0 1 1.99988,1.99987 v 1.64021 c 1.86853,-0.10099 3.77163,-0.0905 5.26479,0.21601 2.71274,0.55681 6.38979,2.43034 6.38979,2.43034 0,0 -4.59343,-1.36576 -8.28476,-1.83709 -0.81504,-0.10407 -2.02165,-0.11938 -3.36982,-0.0842 v 3.65404 c 7.13908,-1.25352 9.73584,0.58602 9.73584,0.58602 -3.39904,-0.73159 -6.56121,-0.52087 -9.73584,0.0584 v 4.0752 c 0.61762,-0.34184 1.17138,-0.61621 1.59525,-0.76326 3.34632,-1.19839 5.2329,-1.69791 9.97665,-1.21026 0,0 -5.83931,0.21612 -11.5719,2.76727 v 3.46749 a 4.0000005,4.0000005 0 0 0 4.00027,3.99976 h 19.99981 a 4.0000038,4.0000038 0 0 0 3.99976,-3.99976 v -3.82617 c -5.68539,-2.49043 -11.42669,-2.70216 -11.42669,-2.70216 4.74375,-0.48765 6.63085,0.0124 9.97717,1.21078 0.39015,0.13535 0.89179,0.3794 1.44952,0.68264 v -4.0628 c -3.04589,-0.52628 -6.08903,-0.69223 -9.35085,0.01 0,0 2.50072,-1.77611 9.35085,-0.65319 v -3.29902 c -1.22018,-0.0248 -2.30931,-0.006 -3.06028,0.0894 -3.69133,0.47133 -8.28476,1.83709 -8.28476,1.83709 0,0 3.67705,-1.87353 6.38979,-2.43034 1.41056,-0.28953 3.18761,-0.31639 4.95525,-0.23358 v -1.62282 a 2.0000011,2.0000011 0 0 1 2.00039,-1.99987 h 2.99982 a 1.0708902,1.0708902 0 0 0 0.678,-1.89963 L 74.238529,94.251549 a 3.4398097,3.4398097 0 0 0 -2.17816,-0.777213 z m 13.99966,20.617864 v 0.73743 c 4.03049,0.0821 9.55346,0.65816 9.57358,0.65887 0,0 -2.25515,-0.68706 -5.00022,-0.99994 -1.31769,-0.15019 -2.94154,-0.31991 -4.57336,-0.39636 z m 0,4.03645 v 0.64337 c 2.48022,0.42855 4.96199,1.09516 7.5644,1.7322 3.50039,0.89563 6.00893,1.64744 6.00893,1.64744 -0.0283,-0.006 -9.34804,-3.25208 -12.90309,-3.90674 -0.22782,-0.0419 -0.45136,-0.0804 -0.67024,-0.11627 z m 0,4.70617 v 0.80874 c 1.00996,0.4424 2.0181,0.95549 2.99207,1.55339 2.77641,1.70438 5.39193,3.25637 5.41724,3.26337 0,0 -5.23567,-3.89997 -8.40931,-5.6255 z m -27.99984,1.16737 v -0.79375 c -3.18571,1.76324 -8.2641,5.5454 -8.2641,5.5454 0.0253,-0.007 2.64135,-1.55899 5.41776,-3.26337 0.92712,-0.56914 1.88519,-1.06054 2.84634,-1.48828 z m 0,-4.86895 v -0.64441 c -0.0953,0.0167 -0.1883,0.0318 -0.28526,0.0496 -3.55505,0.65466 -12.87474,3.90023 -12.90308,3.90623 0,0 2.50853,-0.7513 6.00893,-1.64693 2.46796,-0.60413 4.82687,-1.23524 7.17941,-1.6645 z m 0,-4.29845 v -0.72502 c -1.52616,0.0825 -3.02971,0.23813 -4.26382,0.37879 -2.74507,0.31288 -5.00022,0.99994 -5.00022,0.99994 0.0196,-6.9e-4 5.26675,-0.54949 9.26404,-0.65371 z" /></g></svg>
