<?xml version="1.0" encoding="UTF-8" standalone="no"?>
<!-- Created with Inkscape (http://www.inkscape.org/) -->

<svg
   width="210mm"
   height="297mm"
   viewBox="0 0 210 297"
   version="1.1"
   id="svg1"
   inkscape:version="1.4 (86a8ad7, 2024-10-11)"
   sodipodi:docname="plus_icon_raw.svg"
   xmlns:inkscape="http://www.inkscape.org/namespaces/inkscape"
   xmlns:sodipodi="http://sodipodi.sourceforge.net/DTD/sodipodi-0.dtd"
   xmlns="http://www.w3.org/2000/svg"
   xmlns:svg="http://www.w3.org/2000/svg">
  <sodipodi:namedview
     id="namedview1"
     pagecolor="#ffffff"
     bordercolor="#000000"
     borderopacity="0.25"
     inkscape:showpageshadow="2"
     inkscape:pageopacity="0.0"
     inkscape:pagecheckerboard="0"
     inkscape:deskcolor="#d1d1d1"
     inkscape:document-units="mm"
     showgrid="true"
     inkscape:zoom="1.1414177"
     inkscape:cx="311.89283"
     inkscape:cy="608.45384"
     inkscape:window-width="1920"
     inkscape:window-height="1001"
     inkscape:window-x="-9"
     inkscape:window-y="-9"
     inkscape:window-maximized="1"
     inkscape:current-layer="layer6">
    <inkscape:grid
       id="grid1"
       units="mm"
       originx="0"
       originy="0"
       spacingx="0.99999998"
       spacingy="1"
       empcolor="#0099e5"
       empopacity="0.30196078"
       color="#0099e5"
       opacity="0.14901961"
       empspacing="5"
       enabled="true"
       visible="true" />
  </sodipodi:namedview>
  <defs
     id="defs1">
    <inkscape:path-effect
       effect="fillet_chamfer"
       id="path-effect14"
       is_visible="true"
       lpeversion="1"
       nodesatellites_param="F,0,0,1,0,10.000001,0,1 @ F,0,0,1,0,10.000001,0,1 @ F,0,0,1,0,9.9999944,0,1 @ F,0,0,1,0,9.9999969,0,1"
       radius="0"
       unit="px"
       method="auto"
       mode="F"
       chamfer_steps="1"
       flexible="false"
       use_knot_distance="true"
       apply_no_radius="true"
       apply_with_radius="true"
       only_selected="false"
       hide_knots="false" />
    <inkscape:path-effect
       effect="fillet_chamfer"
       id="path-effect12"
       is_visible="true"
       lpeversion="1"
       nodesatellites_param="F,0,0,1,0,4.9999999,0,1 @ F,0,0,1,0,2.9999995,0,1 @ F,0,0,1,0,4.9999998,0,1 @ F,0,0,1,0,4.9999998,0,1 @ F,0,0,1,0,2.9999999,0,1 @ F,0,0,1,0,4.9999995,0,1 @ F,0,0,1,0,4.9999995,0,1 @ F,0,0,1,0,3.0000027,0,1 @ F,0,0,1,0,5,0,1 @ F,0,0,1,0,4.999997,0,1 @ F,0,0,1,0,3.0000027,0,1 @ F,0,0,1,0,4.9999999,0,1"
       radius="0"
       unit="px"
       method="auto"
       mode="F"
       chamfer_steps="1"
       flexible="false"
       use_knot_distance="true"
       apply_no_radius="true"
       apply_with_radius="true"
       only_selected="false"
       hide_knots="false" />
    <inkscape:path-effect
       effect="fillet_chamfer"
       id="path-effect10"
       is_visible="true"
       lpeversion="1"
       nodesatellites_param="F,0,0,1,0,10.000001,0,1 @ F,0,0,1,0,10.000001,0,1 @ F,0,0,1,0,9.9999944,0,1 @ F,0,0,1,0,9.9999969,0,1"
       radius="0"
       unit="px"
       method="auto"
       mode="F"
       chamfer_steps="1"
       flexible="false"
       use_knot_distance="true"
       apply_no_radius="true"
       apply_with_radius="true"
       only_selected="false"
       hide_knots="false" />
    <inkscape:path-effect
       effect="fillet_chamfer"
       id="path-effect9"
       is_visible="true"
       lpeversion="1"
       nodesatellites_param="F,0,0,1,0,4.9999999,0,1 @ F,0,0,1,0,2.9999995,0,1 @ F,0,0,1,0,4.9999998,0,1 @ F,0,0,1,0,4.9999998,0,1 @ F,0,0,1,0,2.9999999,0,1 @ F,0,0,1,0,4.9999995,0,1 @ F,0,0,1,0,4.9999995,0,1 @ F,0,0,1,0,3.0000027,0,1 @ F,0,0,1,0,5,0,1 @ F,0,0,1,0,4.999997,0,1 @ F,0,0,1,0,3.0000027,0,1 @ F,0,0,1,0,4.9999999,0,1"
       radius="0"
       unit="px"
       method="auto"
       mode="F"
       chamfer_steps="1"
       flexible="false"
       use_knot_distance="true"
       apply_no_radius="true"
       apply_with_radius="true"
       only_selected="false"
       hide_knots="false" />
    <inkscape:path-effect
       effect="fillet_chamfer"
       id="path-effect7"
       is_visible="true"
       lpeversion="1"
       nodesatellites_param="F,0,0,1,0,4.9999999,0,1 @ F,0,0,1,0,2.9999995,0,1 @ F,0,0,1,0,4.9999998,0,1 @ F,0,0,1,0,4.9999998,0,1 @ F,0,0,1,0,2.9999999,0,1 @ F,0,0,1,0,4.9999995,0,1 @ F,0,0,1,0,4.9999995,0,1 @ F,0,0,1,0,3.0000027,0,1 @ F,0,0,1,0,5,0,1 @ F,0,0,1,0,4.999997,0,1 @ F,0,0,1,0,3.0000027,0,1 @ F,0,0,1,0,4.9999999,0,1"
       radius="0"
       unit="px"
       method="auto"
       mode="F"
       chamfer_steps="1"
       flexible="false"
       use_knot_distance="true"
       apply_no_radius="true"
       apply_with_radius="true"
       only_selected="false"
       hide_knots="false" />
    <inkscape:path-effect
       effect="fillet_chamfer"
       id="path-effect5"
       is_visible="true"
       lpeversion="1"
       nodesatellites_param="F,0,0,1,0,4.9999999,0,1 @ F,0,0,1,0,2.9999995,0,1 @ F,0,0,1,0,4.9999998,0,1 @ F,0,0,1,0,4.9999998,0,1 @ F,0,0,1,0,2.9999999,0,1 @ F,0,0,1,0,4.9999995,0,1 @ F,0,0,1,0,4.9999995,0,1 @ F,0,0,1,0,3.0000027,0,1 @ F,0,0,1,0,5,0,1 @ F,0,0,1,0,4.999997,0,1 @ F,0,0,1,0,3.0000027,0,1 @ F,0,0,1,0,4.9999999,0,1"
       radius="0"
       unit="px"
       method="auto"
       mode="F"
       chamfer_steps="1"
       flexible="false"
       use_knot_distance="true"
       apply_no_radius="true"
       apply_with_radius="true"
       only_selected="false"
       hide_knots="false" />
    <inkscape:path-effect
       effect="fillet_chamfer"
       id="path-effect2"
       is_visible="true"
       lpeversion="1"
       nodesatellites_param="F,0,0,1,0,4.9999999,0,1 @ F,0,0,1,0,2.9999995,0,1 @ F,0,0,1,0,4.9999998,0,1 @ F,0,0,1,0,4.9999998,0,1 @ F,0,0,1,0,2.9999999,0,1 @ F,0,0,1,0,4.9999995,0,1 @ F,0,0,1,0,4.9999995,0,1 @ F,0,0,1,0,3.0000027,0,1 @ F,0,0,1,0,5,0,1 @ F,0,0,1,0,4.999997,0,1 @ F,0,0,1,0,3.0000027,0,1 @ F,0,0,1,0,4.9999999,0,1"
       radius="0"
       unit="px"
       method="auto"
       mode="F"
       chamfer_steps="1"
       flexible="false"
       use_knot_distance="true"
       apply_no_radius="true"
       apply_with_radius="true"
       only_selected="false"
       hide_knots="false" />
    <inkscape:path-effect
       effect="fillet_chamfer"
       id="path-effect2-7"
       is_visible="true"
       lpeversion="1"
       nodesatellites_param="F,0,0,1,0,4.9999999,0,1 @ F,0,0,1,0,2.9999995,0,1 @ F,0,0,1,0,4.9999998,0,1 @ F,0,0,1,0,4.9999998,0,1 @ F,0,0,1,0,2.9999999,0,1 @ F,0,0,1,0,4.9999995,0,1 @ F,0,0,1,0,4.9999995,0,1 @ F,0,0,1,0,3.0000027,0,1 @ F,0,0,1,0,5,0,1 @ F,0,0,1,0,4.999997,0,1 @ F,0,0,1,0,3.0000027,0,1 @ F,0,0,1,0,4.9999999,0,1"
       radius="0"
       unit="px"
       method="auto"
       mode="F"
       chamfer_steps="1"
       flexible="false"
       use_knot_distance="true"
       apply_no_radius="true"
       apply_with_radius="true"
       only_selected="false"
       hide_knots="false" />
    <inkscape:path-effect
       effect="fillet_chamfer"
       id="path-effect2-7-6"
       is_visible="true"
       lpeversion="1"
       nodesatellites_param="F,0,0,1,0,4.9999999,0,1 @ F,0,0,1,0,2.9999995,0,1 @ F,0,0,1,0,4.9999998,0,1 @ F,0,0,1,0,4.9999998,0,1 @ F,0,0,1,0,2.9999999,0,1 @ F,0,0,1,0,4.9999995,0,1 @ F,0,0,1,0,4.9999995,0,1 @ F,0,0,1,0,3.0000027,0,1 @ F,0,0,1,0,5,0,1 @ F,0,0,1,0,4.999997,0,1 @ F,0,0,1,0,3.0000027,0,1 @ F,0,0,1,0,4.9999999,0,1"
       radius="0"
       unit="px"
       method="auto"
       mode="F"
       chamfer_steps="1"
       flexible="false"
       use_knot_distance="true"
       apply_no_radius="true"
       apply_with_radius="true"
       only_selected="false"
       hide_knots="false" />
    <inkscape:path-effect
       effect="fillet_chamfer"
       id="path-effect2-0"
       is_visible="true"
       lpeversion="1"
       nodesatellites_param="F,0,0,1,0,4.9999999,0,1 @ F,0,0,1,0,2.9999995,0,1 @ F,0,0,1,0,4.9999998,0,1 @ F,0,0,1,0,4.9999998,0,1 @ F,0,0,1,0,2.9999999,0,1 @ F,0,0,1,0,4.9999995,0,1 @ F,0,0,1,0,4.9999995,0,1 @ F,0,0,1,0,3.0000027,0,1 @ F,0,0,1,0,5,0,1 @ F,0,0,1,0,4.999997,0,1 @ F,0,0,1,0,3.0000027,0,1 @ F,0,0,1,0,4.9999999,0,1"
       radius="0"
       unit="px"
       method="auto"
       mode="F"
       chamfer_steps="1"
       flexible="false"
       use_knot_distance="true"
       apply_no_radius="true"
       apply_with_radius="true"
       only_selected="false"
       hide_knots="false" />
  </defs>
  <g
     inkscape:label="Layer 1"
     inkscape:groupmode="layer"
     id="layer1"
     style="display:none">
    <path
       style="fill:#000000;stroke-width:0.264583"
       d="m 95.000002,39.999999 v 12 a 2.9999995,2.9999995 135 0 1 -3,2.999999 l -12,0 a 4.9999998,4.9999998 135 0 0 -5,5 v 10 a 4.9999998,4.9999998 45 0 0 5,5 h 12 a 2.9999999,2.9999999 45 0 1 3,3 v 11.999999 a 4.9999995,4.9999995 45 0 0 4.999998,5 l 10,0 a 4.9999995,4.9999995 135 0 0 5,-4.999999 V 78.000001 a 3.0000027,3.0000027 135 0 1 3,-3.000003 h 12 a 5,5 135 0 0 5,-5 V 59.999995 a 4.999997,4.999997 45 0 0 -5,-4.999997 h -12 a 3.0000027,3.0000027 45 0 1 -3,-3.000003 V 39.999999 a 4.9999999,4.9999999 45 0 0 -5,-5 h -10 a 4.9999999,4.9999999 135 0 0 -4.999998,5 z"
       id="path1"
       inkscape:path-effect="#path-effect2"
       inkscape:original-d="m 95.000002,34.999999 v 19.999999 h -20 v 20 h 20 V 94.999997 H 115 V 74.999998 h 20 v -20 H 115 V 34.999999 Z"
       sodipodi:nodetypes="ccccccccccccc"
       transform="translate(15,54.999999)" />
    <path
       style="fill:#000000;stroke-width:0.264583"
       d="m 95.000005,160 c 0,0 7.514375,-37.53356 14.999995,-55 15,-35.000001 35,-45.000002 35,-45.000002 0,0 -1.5629,41.562902 -15,55.000002 -5,5 -23,15 -23,15 0,0 -6,10 -7.999996,22 -0.328797,1.97278 0,5 0,5 0,0 -1,-1 -2,0 -0.849837,0.84983 -1.999999,3 -1.999999,3 z"
       id="path2"
       sodipodi:nodetypes="cscscscsc" />
  </g>
  <g
     inkscape:groupmode="layer"
     id="layer4"
     inkscape:label="Layer 2"
     style="display:none">
    <path
       style="fill:#000000;stroke-width:0.264583"
       d="m 95.000002,39.999999 v 12 a 2.9999995,2.9999995 135 0 1 -3,2.999999 l -12,0 a 4.9999998,4.9999998 135 0 0 -5,5 v 10 a 4.9999998,4.9999998 45 0 0 5,5 h 12 a 2.9999999,2.9999999 45 0 1 3,3 v 11.999999 a 4.9999995,4.9999995 45 0 0 4.999998,5 l 10,0 a 4.9999995,4.9999995 135 0 0 5,-4.999999 V 78.000001 a 3.0000027,3.0000027 135 0 1 3,-3.000003 h 12 a 5,5 135 0 0 5,-5 V 59.999995 a 4.999997,4.999997 45 0 0 -5,-4.999997 h -12 a 3.0000027,3.0000027 45 0 1 -3,-3.000003 V 39.999999 a 4.9999999,4.9999999 45 0 0 -5,-5 h -10 a 4.9999999,4.9999999 135 0 0 -4.999998,5 z"
       id="path1-3"
       sodipodi:nodetypes="ccccccccccccc"
       transform="matrix(0.58139535,0,0,0.50000003,-1.8604638,114.99999)"
       inkscape:original-d="m 95.000002,34.999999 v 19.999999 h -20 v 20 h 20 V 94.999997 H 115 V 74.999998 h 20 v -20 H 115 V 34.999999 Z"
       inkscape:path-effect="#path-effect2-7" />
    <path
       style="fill:#000000;stroke-width:0.264583"
       d="m 30.000004,185 c 0,0 7.514375,-37.53356 14.999995,-55 15,-35.000002 35,-45.000003 35,-45.000003 0,0 -1.5629,41.562903 -15,55.000003 -5,5 -23,15 -23,15 0,0 -6,10 -7.999996,22 -0.328797,1.97278 0,5 0,5 0,0 -1,-1 -2,0 -0.849837,0.84983 -1.999999,3 -1.999999,3 z"
       id="path2-1"
       sodipodi:nodetypes="cscscscsc" />
  </g>
  <g
     inkscape:groupmode="layer"
     id="layer5"
     inkscape:label="Layer 3"
     style="display:none">
    <path
       style="fill:#000000;stroke-width:0.264583"
       d="m 95.000002,39.999999 v 12 a 2.9999995,2.9999995 135 0 1 -3,2.999999 l -12,0 a 4.9999998,4.9999998 135 0 0 -5,5 v 10 a 4.9999998,4.9999998 45 0 0 5,5 h 12 a 2.9999999,2.9999999 45 0 1 3,3 v 11.999999 a 4.9999995,4.9999995 45 0 0 4.999998,5 l 10,0 a 4.9999995,4.9999995 135 0 0 5,-4.999999 V 78.000001 a 3.0000027,3.0000027 135 0 1 3,-3.000003 h 12 a 5,5 135 0 0 5,-5 V 59.999995 a 4.999997,4.999997 45 0 0 -5,-4.999997 h -12 a 3.0000027,3.0000027 45 0 1 -3,-3.000003 V 39.999999 a 4.9999999,4.9999999 45 0 0 -5,-5 h -10 a 4.9999999,4.9999999 135 0 0 -4.999998,5 z"
       id="path1-3-0"
       sodipodi:nodetypes="ccccccccccccc"
       transform="matrix(0.58139535,0,0,0.50000003,78.139537,124.99999)"
       inkscape:original-d="m 95.000002,34.999999 v 19.999999 h -20 v 20 h 20 V 94.999997 H 115 V 74.999998 h 20 v -20 H 115 V 34.999999 Z"
       inkscape:path-effect="#path-effect2-7-6" />
    <path
       style="fill:#000000;stroke-width:0.18713"
       d="m 108.00001,180.00665 c 0,0 7.51437,-18.7751 14.99999,-27.51219 15,-17.50775 35,-22.50996 35,-22.50996 0,0 -1.5629,20.79066 -15,27.51218 C 138,159.99779 120,165 120,165 c 0,0 -6,5.00222 -8,11.00488 -0.32879,0.98683 0,2.5011 0,2.5011 0,0 -1,-0.50021 -2,0 -0.84983,0.42511 -1.99999,1.50067 -1.99999,1.50067 z"
       id="path2-1-2"
       sodipodi:nodetypes="cscscscsc" />
  </g>
  <g
     inkscape:groupmode="layer"
     id="g4"
     inkscape:label="Layer 3 copy"
     style="display:none">
    <path
       style="fill:#000000;stroke-width:0.264583"
       d="m 95.000002,39.999999 v 12 a 2.9999995,2.9999995 135 0 1 -3,2.999999 l -12,0 a 4.9999998,4.9999998 135 0 0 -5,5 v 10 a 4.9999998,4.9999998 45 0 0 5,5 h 12 a 2.9999999,2.9999999 45 0 1 3,3 v 11.999999 a 4.9999995,4.9999995 45 0 0 4.999998,5 l 10,0 a 4.9999995,4.9999995 135 0 0 5,-4.999999 V 78.000001 a 3.0000027,3.0000027 135 0 1 3,-3.000003 h 12 a 5,5 135 0 0 5,-5 V 59.999995 a 4.999997,4.999997 45 0 0 -5,-4.999997 h -12 a 3.0000027,3.0000027 45 0 1 -3,-3.000003 V 39.999999 a 4.9999999,4.9999999 45 0 0 -5,-5 h -10 a 4.9999999,4.9999999 135 0 0 -4.999998,5 z"
       id="path3"
       sodipodi:nodetypes="ccccccccccccc"
       transform="matrix(0.58139535,0,0,0.50000003,78.139537,124.99999)"
       inkscape:original-d="m 95.000002,34.999999 v 19.999999 h -20 v 20 h 20 V 94.999997 H 115 V 74.999998 h 20 v -20 H 115 V 34.999999 Z"
       inkscape:path-effect="#path-effect5" />
    <path
       style="fill:#000000;stroke-width:0.152177"
       d="m 123.18833,179.99999 c 0,0 2.53737,-16.86702 6.77125,-25.49296 8.48404,-17.285 22.93615,-25.28375 22.93615,-25.28375 0,0 2.36309,17.36167 -6.77127,25.49295 -3.39893,3.02568 -16.32019,10.63496 -16.32019,10.63496 0,0 -3.73617,5.27242 -4.23935,10.58668 -0.0827,0.87366 0.42819,2.05197 0.42819,2.05197 0,0 -0.85106,-0.21564 -1.53085,0.38948 -0.5777,0.51427 -1.27393,1.62067 -1.27393,1.62067 z"
       id="path4"
       sodipodi:nodetypes="cscscscsc" />
  </g>
  <g
     inkscape:groupmode="layer"
     id="g6"
     inkscape:label="Layer 3 copy"
     style="display:none">
    <path
       style="opacity:1;fill:#000000;stroke-width:0.264583"
       d="m 95.000002,39.999999 v 12 a 2.9999995,2.9999995 135 0 1 -3,2.999999 l -12,0 a 4.9999998,4.9999998 135 0 0 -5,5 v 10 a 4.9999998,4.9999998 45 0 0 5,5 h 12 a 2.9999999,2.9999999 45 0 1 3,3 v 11.999999 a 4.9999995,4.9999995 45 0 0 4.999998,5 l 10,0 a 4.9999995,4.9999995 135 0 0 5,-4.999999 V 78.000001 a 3.0000027,3.0000027 135 0 1 3,-3.000003 h 12 a 5,5 135 0 0 5,-5 V 59.999995 a 4.999997,4.999997 45 0 0 -5,-4.999997 h -12 a 3.0000027,3.0000027 45 0 1 -3,-3.000003 V 39.999999 a 4.9999999,4.9999999 45 0 0 -5,-5 h -10 a 4.9999999,4.9999999 135 0 0 -4.999998,5 z"
       id="path5"
       sodipodi:nodetypes="ccccccccccccc"
       transform="matrix(0.58139535,0,0,0.50000003,78.139537,124.99999)"
       inkscape:original-d="m 95.000002,34.999999 v 19.999999 h -20 v 20 h 20 V 94.999997 H 115 V 74.999998 h 20 v -20 H 115 V 34.999999 Z"
       inkscape:path-effect="#path-effect7" />
    <path
       style="opacity:1;fill:#000000;stroke-width:0.186611"
       d="m 111.57525,178.19575 c 0,0 5.20603,-17.97996 11.94849,-26.9609 13.51085,-17.99637 34.38957,-25.55659 34.38957,-25.55659 0,0 1.55412,18.87008 -11.94853,26.96089 -5.02439,3.01062 -23.7371,10.26304 -23.7371,10.26304 0,0 -5.71681,5.40566 -6.94538,11.09216 -0.202,0.93488 0.39056,2.24113 0.39056,2.24113 0,0 -1.16109,-0.29432 -2.16598,0.30779 -0.85397,0.51173 -1.93163,1.65248 -1.93163,1.65248 z"
       id="path6"
       sodipodi:nodetypes="cscscscsc" />
  </g>
  <g
     inkscape:groupmode="layer"
     id="g8"
     inkscape:label="Layer 3 copy"
     style="display:none">
    <path
       id="path7"
       style="opacity:1;fill:#000000;stroke-width:0.264583"
       d="m 137.21097,1.3562536 c 0,0 -35.9115,15.1204184 -59.150164,51.1131564 -11.597032,17.961879 -20.551635,53.92229 -20.551635,53.92229 0,0 1.853636,-2.28177 3.322464,-3.30523 1.728411,-1.20422 3.725995,-0.61598 3.725995,-0.61598 0,0 -1.019399,-2.611621 -0.671959,-4.481381 2.11314,-11.372999 11.945937,-22.184691 11.945937,-22.184691 0,0 1.643978,-0.752871 2.467405,-1.12758 A 4.9999998,4.9999998 0 0 1 74.999659,70.000122 V 59.999699 a 4.9999998,4.9999998 0 0 1 5.000584,-5.000211 h 12.000156 a 2.9999995,2.9999995 0 0 0 2.999817,-2.9993 V 39.999887 a 4.9999999,4.9999999 0 0 1 4.999695,-5.000211 h 10.000279 a 4.9999999,4.9999999 0 0 1 4.99969,5.000211 v 12.000301 a 3.0000027,3.0000027 0 0 0 2.23365,2.847371 C 139.8236,38.443461 137.21097,1.3562536 137.21097,1.3562536 Z M 117.23353,54.847559 c -0.19448,0.14122 -0.37596,0.292866 -0.57419,0.430981 -7.60971,5.302033 -32.289976,16.635925 -38.360327,19.398298 a 4.9999998,4.9999998 0 0 0 1.70123,0.323495 h 12.000156 a 2.9999999,2.9999999 0 0 1 2.999817,2.9993 v 12.0003 a 4.9999995,4.9999995 0 0 0 4.999695,5.000212 h 10.000279 a 4.9999995,4.9999995 0 0 0 4.99969,-5.000212 v -12.0003 a 3.0000027,3.0000027 0 0 1 2.99982,-2.9993 h 12.00016 a 5,5 0 0 0 5.00058,-5.000211 V 59.999699 a 4.999997,4.999997 0 0 0 -5.00058,-5.000211 H 117.9997 a 3.0000027,3.0000027 0 0 1 -0.76617,-0.151929 z"
       transform="matrix(0.58139535,0,0,0.50000003,78.139537,124.99999)" />
  </g>
  <g
     inkscape:groupmode="layer"
     id="layer6"
     inkscape:label="Layer 4"
     style="display:none">
    <path
       style="display:inline;fill:#000000;stroke-width:0.264583"
       d="m 95.000002,39.999999 v 12 a 2.9999995,2.9999995 135 0 1 -3,2.999999 l -12,0 a 4.9999998,4.9999998 135 0 0 -5,5 v 10 a 4.9999998,4.9999998 45 0 0 5,5 h 12 a 2.9999999,2.9999999 45 0 1 3,3 v 11.999999 a 4.9999995,4.9999995 45 0 0 4.999998,5 l 10,0 a 4.9999995,4.9999995 135 0 0 5,-4.999999 V 78.000001 a 3.0000027,3.0000027 135 0 1 3,-3.000003 h 12 a 5,5 135 0 0 5,-5 V 59.999995 a 4.999997,4.999997 45 0 0 -5,-4.999997 h -12 a 3.0000027,3.0000027 45 0 1 -3,-3.000003 V 39.999999 a 4.9999999,4.9999999 45 0 0 -5,-5 h -10 a 4.9999999,4.9999999 135 0 0 -4.999998,5 z"
       id="path1-4"
       inkscape:path-effect="#path-effect2-0"
       inkscape:original-d="m 95.000002,34.999999 v 19.999999 h -20 v 20 h 20 V 94.999997 H 115 V 74.999998 h 20 v -20 H 115 V 34.999999 Z"
       sodipodi:nodetypes="ccccccccccccc"
       transform="translate(-2.7430803e-7,59.999999)" />
    <path
       style="opacity:1;fill:#000000;stroke-width:0.264583"
       d="M 60.000001,89.999999 V 160 a 10.000001,10.000001 45 0 0 10.000001,10 H 140.00001 A 9.9999944,9.9999944 135 0 0 150,160.00001 V 89.999995 A 9.9999969,9.9999969 45 0 0 140,79.999998 H 70.000002 A 10.000001,10.000001 135 0 0 60.000001,89.999999 Z"
       id="path9"
       inkscape:path-effect="#path-effect10"
       inkscape:original-d="M 60.000001,79.999998 V 170 H 150 V 79.999998 Z"
       sodipodi:nodetypes="ccccc" />
  </g>
  <g
     inkscape:groupmode="layer"
     id="g11"
     inkscape:label="Layer 4 copy">
    <path
       id="path10"
       style="display:inline;fill:#000000;stroke-width:0.264583"
       d="M 69.999862 19.999769 A 10.000001 10.000001 0 0 0 59.999956 30.000192 L 59.999956 100.00005 A 10.000001 10.000001 0 0 0 69.999862 109.99996 L 140.00024 109.99996 A 9.9999944 9.9999944 0 0 0 150.00015 100.00005 L 150.00015 30.000192 A 9.9999969 9.9999969 0 0 0 140.00024 19.999769 L 69.999862 19.999769 z M 100.0001 34.999887 L 110 34.999887 A 4.9999999 4.9999999 0 0 1 115.00022 40.000099 L 115.00022 51.999883 A 3.0000027 3.0000027 0 0 0 118.00003 55.000217 L 129.99982 55.000217 A 4.999997 4.999997 0 0 1 135.00003 59.999911 L 135.00003 69.999818 A 5 5 0 0 1 129.99982 75.000029 L 118.00003 75.000029 A 3.0000027 3.0000027 0 0 0 115.00022 77.999846 L 115.00022 90.000147 A 4.9999995 4.9999995 0 0 1 110 94.999842 L 100.0001 94.999842 A 4.9999995 4.9999995 0 0 1 94.999886 90.000147 L 94.999886 77.999846 A 2.9999999 2.9999999 0 0 0 92.000069 75.000029 L 79.999768 75.000029 A 4.9999998 4.9999998 0 0 1 75.000074 69.999818 L 75.000074 59.999911 A 4.9999998 4.9999998 0 0 1 79.999768 55.000217 L 92.000069 55.000217 A 2.9999995 2.9999995 0 0 0 94.999886 51.999883 L 94.999886 40.000099 A 4.9999999 4.9999999 0 0 1 100.0001 34.999887 z "
       transform="translate(-2.7430803e-7,59.999999)" />
  </g>
</svg>
