<?xml version="1.0" encoding="UTF-8" standalone="no"?>
<!-- Created with Inkscape (http://www.inkscape.org/) -->

<svg
   width="54.761505mm"
   height="37.995155mm"
   viewBox="0 0 54.761505 37.995155"
   version="1.1"
   id="svg1"
   xml:space="preserve"
   sodipodi:docname="home icon.svg"
   inkscape:version="1.4 (86a8ad7, 2024-10-11)"
   xmlns:inkscape="http://www.inkscape.org/namespaces/inkscape"
   xmlns:sodipodi="http://sodipodi.sourceforge.net/DTD/sodipodi-0.dtd"
   xmlns="http://www.w3.org/2000/svg"
   xmlns:svg="http://www.w3.org/2000/svg"><sodipodi:namedview
     id="namedview1"
     pagecolor="#ffffff"
     bordercolor="#000000"
     borderopacity="0.25"
     inkscape:showpageshadow="2"
     inkscape:pageopacity="0.0"
     inkscape:pagecheckerboard="0"
     inkscape:deskcolor="#d1d1d1"
     inkscape:document-units="mm"
     inkscape:zoom="5.4525044"
     inkscape:cx="103.53041"
     inkscape:cy="71.801868"
     inkscape:window-width="1920"
     inkscape:window-height="1001"
     inkscape:window-x="-9"
     inkscape:window-y="-9"
     inkscape:window-maximized="1"
     inkscape:current-layer="svg1" /><defs
     id="defs1" /><g
     id="layer3"
     transform="translate(-44.871847,-93.474331)"><path
       id="path4-3"
       style="color:#000000;font-style:normal;font-variant:normal;font-weight:normal;font-stretch:normal;font-size:medium;line-height:normal;font-family:sans-serif;font-variant-ligatures:normal;font-variant-position:normal;font-variant-caps:normal;font-variant-numeric:normal;font-variant-alternates:normal;font-variant-east-asian:normal;font-feature-settings:normal;font-variation-settings:normal;text-indent:0;text-align:start;text-decoration-line:none;text-decoration-style:solid;text-decoration-color:#000000;letter-spacing:normal;word-spacing:normal;text-transform:none;writing-mode:lr-tb;direction:ltr;text-orientation:mixed;dominant-baseline:auto;baseline-shift:baseline;text-anchor:start;white-space:normal;shape-padding:0;shape-margin:0;inline-size:0;clip-rule:nonzero;display:inline;overflow:visible;visibility:visible;isolation:auto;mix-blend-mode:normal;color-interpolation:sRGB;color-interpolation-filters:linearRGB;solid-color:#000000;solid-opacity:1;vector-effect:none;fill:#000000;fill-opacity:1;fill-rule:nonzero;stroke:none;stroke-linecap:butt;stroke-linejoin:miter;stroke-miterlimit:4;stroke-dasharray:none;stroke-dashoffset:0;stroke-opacity:1;-inkscape-stroke:none;color-rendering:auto;image-rendering:auto;shape-rendering:auto;text-rendering:auto;enable-background:accumulate;stop-color:#000000"
       d="m 72.060369,93.474336 a 3.4398097,3.4398097 0 0 0 -2.17816,0.777213 l -17.50023,14.318511 a 1.0708903,1.0708903 0 0 0 0.67851,1.89963 h 2.99982 a 1.9999967,1.9999967 0 0 1 1.99988,1.99987 v 1.64021 c 1.86853,-0.10099 3.77163,-0.0905 5.26479,0.21601 2.71274,0.55681 6.38979,2.43034 6.38979,2.43034 0,0 -4.59343,-1.36576 -8.28476,-1.83709 -0.81504,-0.10407 -2.02165,-0.11938 -3.36982,-0.0842 v 3.65404 c 7.13908,-1.25352 9.73584,0.58602 9.73584,0.58602 -3.39904,-0.73159 -6.56121,-0.52087 -9.73584,0.0584 v 4.0752 c 0.61762,-0.34184 1.17138,-0.61621 1.59525,-0.76326 3.34632,-1.19839 5.2329,-1.69791 9.97665,-1.21026 0,0 -5.83931,0.21612 -11.5719,2.76727 v 3.46749 a 4.0000005,4.0000005 0 0 0 4.00027,3.99976 h 19.99981 a 4.0000038,4.0000038 0 0 0 3.99976,-3.99976 v -3.82617 c -5.68539,-2.49043 -11.42669,-2.70216 -11.42669,-2.70216 4.74375,-0.48765 6.63085,0.0124 9.97717,1.21078 0.39015,0.13535 0.89179,0.3794 1.44952,0.68264 v -4.0628 c -3.04589,-0.52628 -6.08903,-0.69223 -9.35085,0.01 0,0 2.50072,-1.77611 9.35085,-0.65319 v -3.29902 c -1.22018,-0.0248 -2.30931,-0.006 -3.06028,0.0894 -3.69133,0.47133 -8.28476,1.83709 -8.28476,1.83709 0,0 3.67705,-1.87353 6.38979,-2.43034 1.41056,-0.28953 3.18761,-0.31639 4.95525,-0.23358 v -1.62282 a 2.0000011,2.0000011 0 0 1 2.00039,-1.99987 h 2.99982 a 1.0708902,1.0708902 0 0 0 0.678,-1.89963 L 74.238529,94.251549 a 3.4398097,3.4398097 0 0 0 -2.17816,-0.777213 z m 13.99966,20.617864 v 0.73743 c 4.03049,0.0821 9.55346,0.65816 9.57358,0.65887 0,0 -2.25515,-0.68706 -5.00022,-0.99994 -1.31769,-0.15019 -2.94154,-0.31991 -4.57336,-0.39636 z m 0,4.03645 v 0.64337 c 2.48022,0.42855 4.96199,1.09516 7.5644,1.7322 3.50039,0.89563 6.00893,1.64744 6.00893,1.64744 -0.0283,-0.006 -9.34804,-3.25208 -12.90309,-3.90674 -0.22782,-0.0419 -0.45136,-0.0804 -0.67024,-0.11627 z m 0,4.70617 v 0.80874 c 1.00996,0.4424 2.0181,0.95549 2.99207,1.55339 2.77641,1.70438 5.39193,3.25637 5.41724,3.26337 0,0 -5.23567,-3.89997 -8.40931,-5.6255 z m -27.99984,1.16737 v -0.79375 c -3.18571,1.76324 -8.2641,5.5454 -8.2641,5.5454 0.0253,-0.007 2.64135,-1.55899 5.41776,-3.26337 0.92712,-0.56914 1.88519,-1.06054 2.84634,-1.48828 z m 0,-4.86895 v -0.64441 c -0.0953,0.0167 -0.1883,0.0318 -0.28526,0.0496 -3.55505,0.65466 -12.87474,3.90023 -12.90308,3.90623 0,0 2.50853,-0.7513 6.00893,-1.64693 2.46796,-0.60413 4.82687,-1.23524 7.17941,-1.6645 z m 0,-4.29845 v -0.72502 c -1.52616,0.0825 -3.02971,0.23813 -4.26382,0.37879 -2.74507,0.31288 -5.00022,0.99994 -5.00022,0.99994 0.0196,-6.9e-4 5.26675,-0.54949 9.26404,-0.65371 z" /></g></svg>
